<svg width="1280" height="720" xmlns="http://www.w3.org/2000/svg" xmlns:xlink="http://www.w3.org/1999/xlink" overflow="hidden"><defs><clipPath id="clip0"><rect x="0" y="0" width="1280" height="720"/></clipPath></defs><g clip-path="url(#clip0)"><rect x="0" y="0" width="1280" height="720" fill="#00826F"/><path d="M63.3558 194.236C67.0824 204.598 72.3997 216.391 76.558 228 77.7851 225.254 80.8982 201.206 82.5342 192.09 84.284 182.397 86.3518 181.612 93.9642 187.151 94.2141 187.336 94.6459 187.266 95.1912 187.336 95.6457 186.412 96.2365 185.489 96.6228 184.474 98.0544 180.827 95.2594 175.542 90.8056 173.581 86.6472 171.757 84.5793 174.527 83.2159 177.735 81.9207 180.758 80.9436 184.012 80.3074 187.243 78.8985 194.536 77.7851 201.898 76.4444 209.837 73.4904 202.66 71.5589 195.782 67.9459 190.013 66.2644 187.312 63.7648 183.228 61.2652 181.335 59.8563 180.25 54.5391 176.789 52.6303 179.881 50.5624 183.204 47.3812 186.435 49.9716 190.959 52.244 194.859 57.6749 196.613 63.3558 194.236L63.3558 194.236Z" fill="#007968" fill-rule="evenodd"/><path d="M295.956 340 307 320.926 284.044 308 273 327.074Z" fill="#007968" fill-rule="evenodd"/><path d="M192.36 304.091C186.4 307.591 185.319 313.75 189.576 319.205 190.887 320.886 192.406 322.409 193.855 324L197.652 324C200.781 317.273 192.682 316.568 190.68 311.386 194.546 309.636 198.227 307.614 202.116 306.295 244.935 291.773 287.755 277.318 330.644 263 334.786 261.614 336.649 259.5 335.798 255 334.671 255.273 333.635 255.477 332.646 255.795 288.445 270.705 244.268 285.614 200.091 300.591 197.399 301.455 194.799 302.659 192.36 304.091L192.36 304.091Z" fill="#007968" fill-rule="evenodd"/><path d="M185.407 389.977C204.565 397.771 248.761 395.387 268.286 390.504 271.25 389.771 274.236 388.968 277.291 388.12 298.355 382.275 313.723 376.063 323.393 369.462 324.932 388.441 332.26 397.977 345.377 398L345.377 398C359.366 398.046 370.323 391.948 378.294 379.754 385.53 368.705 389.09 355.479 388.998 340.076 388.884 327.56 386.334 307.045 381.372 278.553 377.076 253.912 371.219 209.122 364.994 170.704L361.181 148.035 346.778 141.891 349.787 161.261C356.311 205.844 361.387 247.402 364.511 264.479 371.885 307.664 376.204 338.379 377.467 356.648 377.88 362.402 374.986 367.284 368.784 371.296 363.294 374.734 357.23 376.453 350.614 376.43 343.7 376.407 338.302 374.161 334.419 369.691 331.249 365.932 330.193 360.041 331.227 351.995 331.525 349.405 330.951 348.121 329.504 348.098 328.631 348.098 326.104 349.382 321.923 351.972 310.231 358.986 294.22 364.854 273.868 369.553 257.031 373.45 215.499 376.201 198.639 370.791 184.81 366.344 173.003 358.39 164.802 346.219 158.485 336.844 153.501 312.615 148.562 273.67 147.436 264.891 146.127 254.645 144.703 243.505 146.035 242.749 147.39 241.946 148.769 241.144 168.294 229.614 180.882 221.271 186.579 216.113 186.28 220.354 186.005 226.176 185.798 233.626 185.821 241.877 186.809 254.187 195.606 263.333 201.625 269.338 215.43 272.456 225.492 267.894 252.505 255.631 283.631 237.041 301.594 224.388 312.344 216.663 314.619 211.758 316.02 203.231 316.112 202.566 316.181 201.879 316.272 201.214 319.58 182.211 313.815 173.065 303.11 165.386 300.124 163.232 296.196 160.848 291.625 158.166 291.625 158.166 289.305 156.745 288.087 156.103 284.55 154.04 280.714 151.817 276.74 149.41L276.717 149.433C269.159 144.55 262.406 139.255 256.502 133.525 255.147 132.127 250.392 126.304 245.89 120.688 239.756 113.124 238.562 100.769 238.562 100.769L236.104 114.064C235.231 119.795 233.899 128.39 233.968 128.849 237.896 137.765 254.044 154.567 262.383 160.642 262.383 160.642 267.62 164.699 270.514 166.441 272.306 167.61 276.142 169.788 276.142 169.788 283.929 174.326 291.831 178.727 299.09 183.999 305.04 188.194 309.496 192.641 310.805 197.684 310.851 197.867 310.851 198.028 310.851 198.188 310.759 199.311 307.796 201.672 302.375 205.34 284.412 218.039 253.286 236.582 227.835 247.402 227.605 247.493 227.375 247.585 227.145 247.677 228.34 243.734 229.626 238.875 230.591 234.015 231.969 227.643 232.658 221.431 232.681 215.334 232.704 205.569 230.591 186.406 226.318 157.799 222.85 136.551 219.703 117.548 216.854 100.769L213.983 84.6779 199.328 78.3285 201.418 91.4628C201.854 93.9843 202.268 96.3911 202.658 98.6145 212.949 158.67 219.358 201.42 221.862 226.886 221.862 227.735 222.942 240.686 223.562 249.075 220.691 250.106 217.727 251 214.81 251.574L212.49 251.963C205.989 252.88 199.856 252.192 195.56 248.617 190.76 244.743 189.129 236.926 189.129 227.574 189.129 221.706 189.014 217.167 188.853 213.867 196.962 204.125 201.028 193.145 201.028 180.905 201.028 175.335 198.73 168.252 194.113 159.679 188.899 150.006 185.178 140.379 185.752 142.258 184.856 139.232 175.76 121.926 175.392 121.926 174.657 121.926 173.761 124.837 172.658 130.637 171.694 135.84 171.211 139.095 171.211 140.424 171.211 141.525 177.942 157.616 182.306 166.189 190.3 182.166 194.297 190.44 194.297 191.059 194.297 193.97 185.201 201.03 167.031 212.285 159.06 217.236 150.882 221.935 142.59 226.474 134.734 165.593 124.534 87.8641 121.64 65.6526L118.769 43.762 103.217 37 107.283 69.3201C110.821 97.308 120.629 174.189 128.21 234.015 121.043 237.66 110.798 242.496 106.41 244.559 102.023 246.645 61.1807 265.762 42 272.112 48.2251 276.88 64.1439 278.507 96.2342 267.252 104.596 264.547 116.012 259.298 130.438 251.482 133.907 278.943 136.64 300.673 137.628 308.787 139.649 323.663 142.452 336.385 145.966 346.998 145.966 346.998 147.919 354.15 152.582 362.746 154.948 367.193 157.544 371.043 160.369 374.23 166.204 380.923 176.012 386.149 185.407 389.977L185.407 389.977Z" fill="#007968" fill-rule="evenodd"/><path d="M529.853 294.94C520.444 278.606 504.772 264.015 487.356 248.369 469.939 232.723 464.271 246.855 464.271 246.855L464.271 246.855C463.468 251.397 462.803 255.825 464.661 260.436 450.756 278.124 442.679 297.325 450.595 320.817 448.966 321.551 447.153 322.423 445.34 323.226 436.276 327.149 430.494 330.911 421.476 334.903 417.139 336.83 412.963 339.078 411.815 344.401 410.852 348.989 410.301 351.833 408.649 358.096 407.754 361.492 408.947 362.822 411.586 363.694 415.579 365.048 460.715 376.289 467.644 380.67 461.128 388.264 456.424 392.233 450.09 396.087 429.232 408.727 406.354 416.458 382.903 422.538 349.883 431.095 312.87 438.895 278.588 438.551 262.571 438.39 232.006 436.715 232.006 436.715 202.336 433.32 166.425 414.692 160 390.787 169.546 447.544 213.672 452.614 225.283 454.357 269.822 459.519 317.895 457.317 361.562 447.521 365.165 446.718 368.745 445.869 372.301 444.974L360.989 462.799 382.237 477 392.059 461.652 411.609 474.752 423.312 456.33 403.348 443.001 393.527 458.349 373.242 444.745C399.103 438.275 424.115 429.489 447.222 415.701 462.275 406.709 474.253 395.33 476.594 376.633 477.672 368.122 474.368 361.308 466.291 358.211 460.462 355.963 454.404 354.242 448.392 352.545 443.252 351.076 437.975 349.975 431.917 348.484 444.698 342.611 456.446 337.105 468.333 331.875 469.641 331.301 471.614 331.829 473.152 332.288 482.445 335.041 491.555 338.551 501.009 340.569 508.627 342.198 516.544 342.405 522.877 335.683 533.57 324.212 535.612 308.085 529.853 294.94L529.853 294.94ZM474.941 309.071C474.505 309.278 474.092 309.576 473.656 309.622 468.241 310.15 455.781 300.721 454.703 295.284 454.588 294.664 454.565 294.068 454.519 293.793 454.611 286.36 466.359 274.751 473.22 275.6 475.859 275.921 478.705 277.894 480.678 279.913 491.44 290.787 488.962 302.946 474.941 309.071ZM520.628 320.656C509.43 322.033 499.058 318.294 488.962 315.449 491.784 306.64 494.377 298.564 497.108 290.076 506.149 296.935 517.071 302.074 524.345 311.847 528.154 316.986 526.938 319.899 520.628 320.656Z" fill="#007968" fill-rule="evenodd"/><path d="M405.972 233.823C404.071 242.729 401.829 251.543 399.972 260.473 398.297 268.573 396.87 276.766 400.448 284.798 403.527 291.702 410.976 293.244 414.531 287.376 418.199 281.346 418.991 274.534 416.75 265.973 415.889 269.195 415.754 271.013 414.939 272.463 413.671 274.718 411.95 276.72 410.433 278.815 408.259 276.812 404.727 275.109 404.206 272.739 403.187 268.044 403.074 262.82 403.935 258.056 405.429 249.748 408.395 241.716 409.912 233.408 413.173 215.642 409.912 199.509 396.984 186 391.572 195.206 391.663 195.159 397.323 202.363 404.637 211.545 408.531 221.832 405.972 233.823Z" fill="#007968" fill-rule="evenodd"/><path d="M-0.999895 492.426C151.17 461.271 301.4 472.507 417.129 521.199 553.156 578.435 623.716 626.934 749.3 649.214 885.988 673.501 926.244 673.266 1046 663.258L1046 722-0.999895 722Z" fill="#FFFFFF" fill-rule="evenodd"/><path d="M1282 536.898C1276.06 535.435 1268.12 534.504 1258.21 534.105 1223.61 532.775 1186.7 544.113 1147.46 568.085 1108.22 592.091 1077.06 602.498 1054.04 599.34 1031.01 596.214 1002.08 598.276 967.215 605.557 937.919 611.675 962.411 623.645 925.707 627.635 919.367 628.333 914.529 629.131 911.226 630.062 905.987 631.492 901.849 633.719 898.78 636.712 894.609 640.768 892.373 646.088 892.039 652.705 891.739 658.922 875.923 657.393 879.06 662.812 883.664 670.825 868.349 677.775 878.626 682.662 886.267 686.32 878.659 689.279 890.838 691.706 907.989 695.131 926.875 697.857 947.496 699.918 963.145 701.481 982.231 702.811 1004.69 703.975 1017.43 704.607 1036.55 705.538 1062.04 706.735 1084.23 707.932 1103.32 709.361 1119.3 711.057 1130.68 712.254 1147.76 714.315 1170.55 717.142 1190.54 719.336 1207.66 720.267 1221.94 719.934 1227.91 719.802 1233.05 719.436 1237.32 718.804 1242.83 718.006 1247.73 716.709 1252.07 714.881 1260.11 711.522 1267.12 706.07 1273.16 698.555 1276.66 694.2 1279.6 689.445 1282 684.225L1282 536.898 1282 536.898Z" fill="#00826F" fill-rule="evenodd"/><path d="M1252.61 595.758 1252 597.003C1252 597.138 1252 597.306 1252.03 597.441 1252.1 597.711 1252.13 597.913 1252.16 598.148L1252.61 595.758M1260.43 597.576 1259.35 595.017 1260.15 600C1260.21 599.226 1260.31 598.384 1260.43 597.576M1260.75 595.455 1260.79 595.623 1260.79 595.556 1260.75 595.455M1262 590 1261.81 590.202 1261.94 590.438 1262 590 1262 590Z" fill="#8DC652" fill-rule="evenodd"/><path d="M1255.62 597.595 1254.27 596.597 1252.22 601.886C1252.25 602.252 1252.25 602.585 1252.28 602.851 1252.28 604.648 1251.99 606.245 1251.45 607.642 1251.06 608.64 1250.93 609.671 1251.03 610.736 1251.19 613.264 1251.54 616.99 1252.09 621.847 1252.41 624.975 1252.25 627.403 1251.61 629.033 1251.13 630.198 1250.93 631.362 1251.03 632.56 1251.19 635.188 1251.54 638.914 1252.09 643.738 1252.41 646.699 1252.25 648.994 1251.61 650.624 1251.19 652.022 1251 653.352 1251.03 654.716 1251.35 658.675 1251.77 662.601 1252.25 666.493 1252.48 667.99 1252.35 670.219 1251.87 673.247 1251.32 676.274 1251.19 678.503 1251.48 680L1260.79 680C1261.08 677.671 1261.08 674.345 1260.7 669.986 1260.31 665.462 1260.25 662.135 1260.54 660.006 1260.95 656.247 1260.89 653.219 1260.34 650.99 1259.77 647.996 1259.61 645.301 1259.93 642.873 1260.44 639.879 1260.7 637.816 1260.7 636.685 1260.7 636.153 1260.57 633.425 1260.28 628.534L1259.83 622.978C1260.09 621.016 1260.28 619.552 1260.38 618.587 1260.73 615.227 1260.92 613.031 1260.92 611.967 1260.92 609.438 1260.57 607.243 1259.83 605.38 1259.54 604.681 1259.51 603.417 1259.73 601.654 1259.77 601.387 1259.8 601.121 1259.83 600.855L1257.97 595 1255.62 597.595 1255.62 597.595Z" fill="#FFCD00" fill-rule="evenodd"/><path d="M1286.26 554.95C1284.54 554.916 1282.45 555.217 1280 555.884 1275.09 557.286 1270.91 559.823 1267.46 563.528 1264.31 566.966 1261.69 570.604 1259.61 574.51 1262.36 567.567 1263.12 561.659 1261.86 556.852 1260.63 551.879 1259.24 548.074 1257.68 545.437L1255.73 543 1255.49 545.604 1258.25 549.442 1255.4 546.605 1255.69 550.31 1260.9 557.286 1254.96 553.581 1260.8 560.29 1255.36 555.984 1259.44 562.56 1256.46 560.023 1257.68 565.464 1256.03 564.396 1254.5 567.333 1257.95 573.442 1254.27 570.771 1254 574.51 1253.74 574.477C1253.8 573.241 1253.87 571.94 1253.9 570.638 1254.04 563.628 1253.04 558.655 1250.92 555.684 1248.83 552.747 1246.24 550.343 1243.06 548.474L1238.88 546.538 1235.67 546.338 1234.74 547.606 1238.19 547.005 1234.18 549.275 1240.67 549.008 1233.88 552.78 1242.73 550.61 1235.73 554.449 1244.69 551.712 1237.49 556.619 1247.87 553.848 1242.6 560.324 1246.05 558.288 1242.93 560.958 1250.22 559.89 1244.92 562.827 1245.22 564.596 1250.42 563.695 1245.42 565.364 1245.42 566.566C1245.15 566.265 1244.88 565.998 1244.55 565.698L1242.73 563.995 1244.32 568.535 1242 563.595 1238.88 562.093 1240.34 565.798 1238.19 561.759 1233.78 559.69 1235.44 562.627 1232.82 559.189 1225.22 557.119 1229.67 560.224 1224.23 556.952 1220.95 556.552 1222.14 558.488 1219.09 556.452 1217.56 556.352 1218.99 557.72 1215.64 557.453 1217.76 558.721 1216.34 559.089C1215.64 559.222 1214.91 559.356 1214.12 559.556L1211 560.224 1212.69 560.124 1212.33 560.224 1213.19 560.09 1216.84 559.89 1213.29 561.959 1220.12 559.89 1215.74 562.794 1221.51 559.89 1217.73 563.695 1223.3 560.557 1222.57 566.866 1224.3 562.226 1223.27 567.166 1225.82 568.001 1231.13 562.827 1227.01 568.368 1232.45 564.93 1228.34 569.136 1230.13 570.338 1236.53 566.132 1232.02 570.738 1233.98 572.941 1242.4 573.075 1237.06 574.477 1238.39 575.344C1237.52 575.211 1236.66 575.077 1235.8 575.011 1233.18 574.877 1230.89 575.211 1228.94 576.012 1225.65 577.447 1222.31 579.483 1218.92 582.054L1214.95 585.558 1214.15 588.162 1215.01 588.229 1215.61 586.293 1215.31 588.229 1216.84 588.062 1219.12 583.455 1217.76 587.995 1219.85 583.355 1219.95 587.194 1221.21 586.827 1222.14 581.353 1221.71 586.493 1223.67 586.159 1226.09 579.617 1226.38 586.293 1228.51 579.016 1227.41 585.992 1228.94 585.892 1232.29 578.515 1229.67 586.226 1231.52 585.558 1235.04 577.681 1232.29 585.558 1233.28 585.291C1231.03 587.494 1228.74 590.065 1226.38 593.069L1222.54 598.61 1222.14 604.651 1224.36 599.611 1224.06 603.383 1225.82 600.045 1226.38 600.946 1228.54 595.672 1229.24 599.077 1230.56 591.333 1229.83 598.843 1231.56 597.141 1231.85 590.799 1232.19 596.841 1233.25 596.14 1234.91 587.327 1234.91 595.038 1236 593.903 1238.39 586.76 1236.36 593.903 1237.36 593.102 1240.01 585.158 1238.88 592.368 1241.01 585.158 1239.68 592.368 1240.51 591.767 1239.91 592.568 1235.47 600.712 1235.17 601.714 1239.41 599.177 1235.07 603.616 1234.08 605.452 1237.49 603.783 1233.91 608.657 1237.03 605.652 1233.25 611.427 1233.55 612.963 1235.14 611.527 1234.81 616 1236.76 611.294 1236.73 611.594 1237.23 613.83 1237.89 608.957 1239.02 610.927 1239.31 605.152 1239.38 604.952 1240.38 609.458 1240.81 602.749 1242.96 607.088 1242.3 602.381 1244.16 605.519 1244.88 604.751 1243.36 597.975 1247.17 601.313 1247.27 595.338 1250.02 595.071 1247.74 601.013 1251.42 595.672 1248.7 603.216 1251.91 597.007 1252.54 595.772 1252.08 598.142 1250.46 606.42 1252.58 601.247 1254.7 595.939 1256.09 596.941 1258.45 594.337 1260.37 600.212 1260.47 600.479 1260.4 600.045 1259.57 595.105 1260.7 597.641 1261.36 599.044 1261.06 595.672 1261.03 595.505 1261.06 595.605 1264.21 603.683 1264.48 603.85 1263.55 596.106 1265.24 588.462 1264.55 597.942 1265.04 599.511 1267.66 590.098 1266.14 601.814 1267.7 604.918 1271.14 598.71 1268.86 606.587 1271.61 602.648 1269.78 608.423 1272.47 612.061C1272.7 610.159 1272.74 607.789 1272.54 605.018 1272.3 600.245 1271.48 595.872 1269.98 591.9L1270.15 592.067 1271.48 594.103 1273.07 599.144 1273.53 603.85 1273.53 612.662 1275.65 608.623 1274.99 605.619 1276.52 607.722 1275.06 603.249 1277.51 605.352 1275.06 601.313 1276.91 602.381 1277.08 600.045 1273.5 595.138 1274.66 595.572 1278.01 600.879 1278.94 594.17C1279.33 599.978 1279.53 603.183 1279.53 603.717 1279.63 603.249 1280.06 601.247 1280.86 597.675L1281.36 605.386 1282.91 600.112 1283.84 608.924 1284.34 602.482C1285 604.384 1284.54 602.849 1282.88 597.942 1281.82 594.838 1279.37 592.134 1275.52 589.797L1270.02 587.194 1269.92 587.194C1269.49 586.86 1269.09 586.56 1268.69 586.326L1284.8 593.135 1278.67 589.263 1281.79 589.03 1281.02 588.429 1276.95 588.162 1279.37 587.494 1276.68 585.892 1268.96 585.492 1272.44 583.856C1272.24 583.722 1271.41 583.622 1270.02 583.522 1269.22 583.455 1268.16 583.522 1266.83 583.789L1266.47 583.088 1269.35 582.855 1266.44 578.782 1269.82 582.821 1271.77 582.955 1269.62 578.782 1272.87 583.489 1276.71 583.556 1275.65 579.917 1277.58 583.823 1278.17 583.823 1277.84 579.784 1279.96 584.29 1280.92 584.357 1279.53 581.019 1281.75 584.357 1285.27 584.624 1286.13 579.817 1288.45 586.092 1290.37 587.461 1290.04 583.789 1291.9 588.696 1294.62 590.732 1294.92 587.561 1298 589.998C1297.1 587.761 1295.65 585.492 1293.62 583.188 1289.71 578.549 1285.2 576.079 1280.03 575.745L1278.77 575.645C1274.66 575.611 1270.71 575.979 1266.93 576.746L1272.04 573.976 1275.22 571.305 1282.15 570.204 1288.48 572.774 1291.24 574.61 1293.49 575.344 1294.15 574.777 1296.51 575.545C1293.52 572.741 1291.73 571.205 1291.14 570.905L1294.82 571.906 1292.3 568.969 1286.03 568.869 1290.97 566.732 1287.76 565.798 1281.69 568.335 1285.77 565.064 1284.01 564.997 1279.27 568.435 1282.52 564.496 1277.58 564.062 1272.34 568.869 1272.17 565.531 1269.69 566.833 1269.98 566.566 1271.81 565.297 1275.72 563.628 1272.54 561.359 1280 561.926 1275.72 559.256 1283.18 558.488 1279.1 557.653 1284.21 557.82 1285.9 556.418 1280.86 556.418 1286.36 554.883M1262.36 575.311 1262.72 574.41 1264.28 572.741 1262.39 575.444 1262.36 575.311M1267.4 571.372 1267.53 569.203 1269.55 567 1267.4 571.372M1265.21 574.076 1265.84 571.038 1267.1 569.67 1265.21 574.076M1246.71 567.433 1246.91 568.101C1246.54 567.634 1246.14 567.166 1245.71 566.699L1250.89 566.766 1246.71 567.433M1240.44 575.711C1240.14 575.645 1239.85 575.578 1239.51 575.511L1243.46 574.31 1240.44 575.711M1245.25 571.973 1246.94 574.143C1246.05 573.141 1245.18 572.173 1244.32 571.272L1245.25 571.973M1243.16 587.394 1243.53 587.661 1242.37 589.197 1243.16 587.394M1243.06 576.446C1242.76 576.346 1242.46 576.246 1242.2 576.179L1244.35 575.411 1243.06 576.446M1262.09 590.365 1262.29 590.165 1262.23 590.565 1262.09 590.365 1262.09 590.365Z" fill="#95C456" fill-rule="evenodd"/><path d="M820.978 601 818.677 603.32 817.347 602.425 815.263 607.165C815.299 607.496 815.334 607.795 815.334 608.027 815.334 609.618 815.047 611.043 814.472 612.269 814.076 613.164 813.969 614.092 814.076 615.02 814.22 617.274 814.58 620.588 815.119 624.963 815.442 627.781 815.263 629.902 814.616 631.393 814.148 632.421 813.933 633.482 814.04 634.542 814.184 636.895 814.544 640.21 815.083 644.552 815.406 647.203 815.227 649.258 814.58 650.717 814.148 651.976 813.969 653.169 814.004 654.396 814.328 657.942 814.723 661.422 815.227 664.902 815.442 666.228 815.334 668.25 814.831 670.968 814.292 673.652 814.148 675.674 814.436 677L823.782 677C824.105 674.912 824.069 671.929 823.674 668.051 823.279 664.007 823.242 661.058 823.53 659.168 823.961 655.788 823.89 653.103 823.35 651.114 822.775 648.43 822.631 646.01 822.955 643.856 823.458 641.171 823.71 639.315 823.71 638.321 823.71 637.823 823.566 635.404 823.314 631.029L822.847 626.057C823.099 624.334 823.279 623.008 823.386 622.146 823.782 619.163 823.961 617.174 823.961 616.213 823.961 613.959 823.602 612.004 822.847 610.314 822.56 609.684 822.524 608.557 822.739 606.966 822.775 606.734 822.811 606.502 822.847 606.27L820.978 601 820.978 601Z" fill="#FA8A00" fill-rule="evenodd"/><path d="M853.138 580.841 850.876 578.257 845.219 578.158 849.678 576.236 846.782 575.375 841.292 577.628 844.986 574.712 843.388 574.646 839.129 577.727 842.024 574.215 837.598 573.851 832.873 578.091 832.74 575.11 830.544 576.269 830.81 576.004 832.44 574.911 835.968 573.42 833.106 571.399 839.828 571.929 835.968 569.544 842.69 568.881 838.996 568.152 843.588 568.285 845.085 567.026 840.56 567.026 845.518 565.668C843.954 565.635 842.091 565.9 839.861 566.496 835.435 567.755 831.675 570.008 828.58 573.287 825.752 576.335 823.389 579.582 821.526 583.061 823.988 576.865 824.687 571.631 823.555 567.357 822.457 562.918 821.193 559.539 819.795 557.187L818.065 555 817.865 557.319 820.361 560.731 817.799 558.214 818.098 561.493 822.79 567.689 817.433 564.409 822.69 570.405 817.799 566.562 821.459 572.393 818.764 570.14 819.895 575.01 818.398 574.049 817.033 576.634 820.128 582.1 816.834 579.715 816.634 583.028 816.401 582.994C816.468 581.901 816.534 580.742 816.534 579.582 816.634 573.354 815.736 568.914 813.839 566.264 811.975 563.647 809.613 561.493 806.784 559.87L803.024 558.147 800.129 557.982 799.33 559.108 802.425 558.578 798.798 560.599 804.654 560.367 798.565 563.746 806.551 561.825 800.229 565.237 808.282 562.785 801.793 567.192 811.143 564.707 806.418 570.471 809.513 568.682 806.718 571.068 813.273 570.107 808.514 572.724 808.747 574.281 813.473 573.486 808.98 574.977 808.98 576.037C808.747 575.772 808.481 575.507 808.215 575.275L806.584 573.751 808.015 577.793 805.919 573.387 803.124 572.029 804.455 575.341 802.492 571.763 798.532 569.908 800.029 572.526 797.7 569.444 790.845 567.589 794.838 570.339 789.946 567.424 786.985 567.059 788.083 568.749 785.321 566.993 783.956 566.894 785.254 568.086 782.226 567.887 784.09 568.981 782.825 569.312C782.193 569.411 781.527 569.577 780.795 569.743L778 570.339 779.531 570.24 779.198 570.339 779.997 570.206 783.291 570.041 780.096 571.896 786.219 570.041 782.293 572.625 787.484 570.041 783.956 573.453 788.981 570.703 788.316 576.302 789.88 572.194 788.915 576.6 791.211 577.329 795.969 572.724 792.276 577.628 797.167 574.546 793.474 578.29 795.071 579.317 800.861 575.573 796.801 579.682 798.532 581.636 806.119 581.769 801.327 583.028 802.525 583.756C801.759 583.624 800.961 583.525 800.195 583.458 797.833 583.326 795.803 583.624 794.039 584.353 791.078 585.645 788.083 587.434 785.021 589.72L781.427 592.867 780.729 595.186 781.494 595.252 782.026 593.53 781.794 595.252 783.158 595.12 785.188 591.012 783.99 595.054 785.853 590.945 785.92 594.358 787.051 593.993 787.85 589.123 787.484 593.695 789.214 593.397 791.41 587.566 791.71 593.53 793.573 587.036 792.608 593.265 793.973 593.198 797.001 586.639 794.638 593.496 796.302 592.9 799.463 585.877 797.001 592.9 797.899 592.668C795.869 594.59 793.773 596.909 791.71 599.625L788.249 604.562 787.883 609.962 789.913 605.456 789.613 608.802 791.177 605.821 791.71 606.649 793.673 601.945 794.305 604.992 795.503 598.102 794.838 604.76 796.402 603.237 796.635 597.571 796.934 602.938 797.899 602.342 799.397 594.523 799.397 601.381 800.362 600.354 802.525 593.993 800.728 600.354 801.626 599.659 803.989 592.569 802.991 598.996 804.854 592.569 803.656 598.996 804.388 598.466 803.856 599.162 799.863 606.384 799.563 607.278 803.39 605.026 799.497 609.001 798.598 610.624 801.66 609.134 798.432 613.474 801.227 610.79 797.833 615.925 798.132 617.283 799.563 616.024 799.264 620 801.027 615.826 800.994 616.124 801.46 618.145 802.059 613.805 803.057 615.528 803.357 610.392 803.423 610.227 804.322 614.235 804.688 608.239 806.651 612.115 806.052 607.941 807.716 610.691 808.381 610.028 807.017 603.965 810.411 606.947 810.511 601.613 812.974 601.414 810.944 606.715 814.238 601.978 811.776 608.703 815.236 602.077 813.373 611.552 815.236 606.947 817.166 602.21 818.398 603.104 820.527 600.785 822.258 606.019 822.324 606.251 821.526 601.448 823.156 604.959 822.857 601.945 822.823 601.812 825.685 609.067 825.885 609.2 825.053 602.309 826.584 595.517 825.951 603.965 826.417 605.39 828.747 597.041 827.382 607.444 828.813 610.194 831.908 604.661 829.878 611.685 832.34 608.173 830.71 613.341 833.106 616.555C833.306 614.865 833.339 612.778 833.172 610.293 832.973 606.053 832.207 602.176 830.876 598.632L831.009 598.764 832.207 600.553 833.672 605.059 834.104 609.233 834.104 617.085 835.968 613.507 835.369 610.823 836.733 612.678 835.435 608.703 837.631 610.558 835.435 606.98 837.099 607.941 837.232 605.854 834.004 601.514 835.036 601.878 838.064 606.616 838.896 600.619C839.262 605.788 839.428 608.637 839.428 609.134 839.528 608.736 839.927 606.947 840.626 603.767L841.092 610.624 842.49 605.92 843.322 613.772 843.788 608.04C844.387 609.73 843.954 608.372 842.49 603.999 841.558 601.249 839.362 598.83 835.868 596.776L830.91 594.424 830.81 594.424C830.444 594.126 830.078 593.861 829.712 593.662L844.22 599.725 838.73 596.279 841.525 596.081 840.859 595.55 837.166 595.319 839.362 594.722 836.933 593.298 829.945 592.933 833.073 591.476C832.873 591.376 832.174 591.277 830.91 591.177 830.211 591.111 829.246 591.211 828.048 591.442L827.715 590.846 830.311 590.647 827.682 587.003 830.743 590.581 832.474 590.714 830.51 587.003 833.439 591.177 836.899 591.244 835.934 587.997 837.665 591.476 838.197 591.476 837.898 587.898 839.794 591.906 840.66 591.972 839.395 588.991 841.425 591.972 844.586 592.204 845.352 587.931 847.448 593.53 849.178 594.722 848.879 591.476 850.509 595.882 852.972 597.671 853.205 594.822 856 596.975C855.201 594.987 853.87 592.966 852.073 590.912 848.579 586.771 844.486 584.585 839.828 584.286L838.696 584.22C835.003 584.187 831.442 584.518 828.015 585.181L832.573 582.696 835.468 580.311 841.691 579.35 847.415 581.603 849.877 583.226 851.907 583.889 852.506 583.359 854.636 584.055C851.974 581.537 850.343 580.178 849.811 579.913L853.138 580.841M827.183 579.947 828.314 578.754 826.617 582.663 827.183 579.947M828.68 578.323 830.477 576.369 828.547 580.278 828.68 578.323M824.121 583.922 824.055 583.756 824.421 582.994 825.818 581.504 824.121 583.922M809.979 576.766 810.145 577.329C809.779 576.899 809.446 576.501 809.08 576.104L813.739 576.17 809.979 576.766M807.816 580.212 808.648 580.808 810.178 582.763C809.346 581.835 808.581 580.974 807.816 580.212M804.322 584.121C804.055 584.055 803.789 583.988 803.523 583.955L807.084 582.895 804.322 584.121M806.684 584.75C806.418 584.651 806.152 584.585 805.886 584.518L807.849 583.856 806.684 584.75M806.784 594.49 807.117 594.755 806.085 596.114 806.784 594.49M823.888 597.373 823.788 597.174 823.955 597.008 823.888 597.373Z" fill="#00B367" fill-rule="evenodd"/><path d="M1111.99 567.652 1110.16 571.9C1110.34 572.978 1110.48 573.889 1110.48 574.664 1110.52 576.383 1110.23 577.968 1109.58 579.417 1109.19 580.227 1109.04 581.238 1109.12 582.519 1109.51 587.441 1109.9 591.149 1110.23 593.644 1110.59 596.712 1110.41 599.139 1109.62 600.892 1109.19 601.87 1109.01 603.05 1109.08 604.365 1109.22 606.961 1109.58 610.736 1110.19 615.692 1110.55 618.456 1110.37 620.715 1109.65 622.502 1109.12 623.884 1108.9 625.266 1109.04 626.615 1109.33 630.593 1109.8 634.503 1110.41 638.448 1110.62 639.897 1110.44 642.19 1109.87 645.258 1109.29 648.191 1109.15 650.449 1109.4 652L1119.7 652C1120.1 649.607 1120.1 646.269 1119.7 641.92 1119.27 637.335 1119.2 634.031 1119.45 631.941 1119.88 628.3 1119.85 625.3 1119.31 622.94 1118.59 620.041 1118.45 617.344 1118.84 614.782 1119.42 611.141 1119.67 609.118 1119.67 608.646 1119.67 607.466 1119.49 604.735 1119.13 600.42 1118.77 597.959 1118.59 596.139 1118.59 594.891 1118.59 594.318 1118.66 593.577 1118.84 592.633 1119.02 591.487 1119.17 590.745 1119.2 590.34 1119.67 587.239 1119.88 585.047 1119.88 583.733 1119.92 581.238 1119.52 579.047 1118.7 577.159 1118.34 576.35 1118.27 575.102 1118.45 573.383 1118.59 572.473 1118.73 571.596 1118.91 570.686L1117.08 566.775 1117.91 572.169 1115.83 566 1113.28 568.63 1111.99 567.652 1111.99 567.652Z" fill="#FB8900" fill-rule="evenodd"/><path d="M1141.36 530.759 1143.03 529.33 1138.07 529.296 1143.53 527.801C1141.8 527.767 1139.7 528.066 1137.27 528.698 1132.42 530.061 1128.3 532.587 1124.87 536.277 1121.78 539.568 1119.22 543.058 1117.15 546.814 1119.78 540.067 1120.51 534.349 1119.35 529.629 1118.09 524.742 1116.69 521.019 1115.16 518.46L1113.26 516 1113.03 518.593 1115.72 522.316 1112.96 519.59 1113.33 523.247 1118.45 530.094 1112.5 526.438 1118.32 533.053 1112.9 528.798 1116.99 535.213 1114.03 532.753 1115.29 538.139 1113.53 537.075 1112.1 539.967 1115.46 545.983 1111.83 543.324 1111.6 546.981 1111.37 546.981C1111.43 545.784 1111.5 544.521 1111.5 543.191 1111.6 536.277 1110.64 531.391 1108.57 528.432 1106.45 525.54 1103.85 523.18 1100.73 521.385L1096.6 519.49 1093.44 519.258 1092.51 520.488 1095.94 519.922 1092.01 522.15 1098.4 521.95 1091.75 525.673 1100.49 523.479 1093.51 527.335 1102.42 524.609 1095.31 529.496 1105.55 526.704 1100.26 533.119 1103.69 531.091 1100.63 533.817 1107.84 532.687 1102.59 535.579 1102.85 537.307 1108.14 536.41 1103.15 538.105 1103.15 539.269C1102.89 538.969 1102.62 538.67 1102.32 538.371L1100.49 536.742 1102.12 541.197 1099.83 536.31 1096.74 534.748 1098.2 538.404 1096.04 534.482 1091.68 532.421 1093.28 535.28 1090.68 532.022 1083.17 529.861 1087.59 532.92 1082.2 529.729 1078.84 529.296 1080.07 531.191 1077.01 529.263 1075.55 529.197 1076.91 530.427 1073.62 530.194 1075.65 531.49 1074.09 531.922C1073.46 532.022 1072.76 532.155 1071.99 532.321L1069 533.019 1070.4 532.953 1070.33 532.953 1074.82 532.654 1071.33 534.681 1077.98 532.654 1073.69 535.546 1079.38 532.654 1075.55 536.443 1081.07 533.452 1080.31 539.568 1082.07 535.047 1081.04 539.867 1083.63 540.698 1088.89 535.579 1084.73 541.03 1090.15 537.64 1086.06 541.762 1087.82 542.992 1094.21 538.803 1089.79 543.424 1091.61 545.518 1100.03 545.717 1094.71 547.047 1096.2 547.945C1095.24 547.778 1094.31 547.679 1093.44 547.612 1090.75 547.479 1088.52 547.778 1086.73 548.576 1083.4 550.039 1080.07 552.033 1076.75 554.593L1072.69 558.017 1071.99 560.609 1072.76 560.676 1073.39 558.748 1073.19 560.676 1074.65 560.543 1076.82 555.956 1075.55 560.41 1077.58 555.889 1077.75 559.645 1078.94 559.313 1079.91 553.928 1079.48 558.947 1081.37 558.648 1083.77 552.166 1084.13 558.748 1086.23 551.634 1085.2 558.482 1086.59 558.316 1089.95 551.103 1087.36 558.648 1089.19 558.017 1092.61 550.271 1089.95 558.017 1090.88 557.784C1088.65 559.911 1086.39 562.471 1084.13 565.429L1080.27 570.947 1079.84 576.898 1082.14 571.945 1081.74 575.601 1083.53 572.277 1084.1 573.241 1086.26 567.989 1086.89 571.346 1088.16 563.734 1087.46 571.114 1089.22 569.485 1089.42 563.235 1089.85 569.119 1090.92 568.488 1092.51 559.812 1092.51 567.357 1093.54 566.294 1096.04 559.18 1094.08 566.227 1095.04 565.463 1097.63 557.651 1096.5 564.765 1098.6 557.584 1097.27 564.698 1098 564.2 1097.47 564.898 1093.14 572.875 1092.78 573.939 1097.07 571.479 1092.68 575.801 1091.75 577.629 1095.11 576.033 1091.55 580.754 1094.61 577.762 1090.92 583.479 1091.25 584.942 1092.78 583.612 1092.45 588 1094.44 583.247 1094.41 583.679 1094.91 585.906 1095.54 581.119 1096.6 582.981 1096.9 577.396 1097 577.164 1097.97 581.551 1098.46 575.003 1100.56 579.258 1099.93 574.637 1101.76 577.729 1102.46 576.898 1100.99 570.283 1104.68 573.54 1104.82 567.69 1107.48 567.457 1105.32 573.241 1108.94 568.055 1106.15 575.402 1110 568.155 1107.98 578.626 1110.47 572.443 1112.17 568.255 1113.5 569.252 1115.86 566.659 1117.79 572.742 1117.02 567.424 1118.72 571.28 1118.72 571.247 1118.42 567.856 1121.51 575.9 1121.81 576.033 1120.91 568.388 1122.48 560.875 1121.84 570.249 1122.34 571.779 1124.94 562.571 1123.47 574.006 1125 577.13 1128.36 571.014 1126.2 578.759 1128.93 574.903 1127.1 580.554 1129.66 584.111C1129.89 582.249 1129.96 579.922 1129.83 577.13 1129.59 572.477 1128.76 568.222 1127.3 564.299L1127.43 564.432 1128.79 566.46 1130.26 571.413 1130.82 576.033 1130.82 584.676 1132.85 580.687 1132.22 577.762 1133.78 579.79 1132.35 575.468 1134.68 577.596 1132.29 573.607 1134.12 574.571 1134.25 572.277 1130.76 567.557 1131.99 567.956 1135.25 573.141 1136.08 566.56C1136.54 572.609 1136.74 575.767 1136.71 576L1138.04 570.05 1138.47 577.662 1140.07 572.41 1141.07 581.086 1141.46 574.704C1142.16 576.565 1141.7 575.069 1140.07 570.249 1139.04 567.224 1136.61 564.532 1132.79 562.205L1127.3 559.612 1127.23 559.612C1126.73 559.213 1126.23 558.881 1125.77 558.648 1125.14 558.349 1124.54 558.05 1123.91 557.784L1124.54 557.119 1125.44 557.252 1128.93 558.648 1142.83 569.618 1138.01 564.399 1141 564.964 1140.43 564.266 1136.58 562.837 1139.1 562.837 1136.94 560.609 1129.66 558.183 1133.42 557.551C1133.22 557.352 1132.52 557.019 1131.26 556.554 1130.46 556.288 1129.29 556.056 1127.83 555.922L1125.8 555.856 1124.11 556.056 1123.87 555.623 1126.63 555.391 1123.81 551.335 1127.16 555.324 1129.06 555.49 1126.97 551.435 1130.19 555.956 1133.95 556.089 1132.85 552.532 1134.75 556.321 1135.45 556.388 1135.01 552.399 1137.11 556.787 1138.07 556.853 1136.71 553.562 1138.94 556.92 1142.43 557.219 1143.26 552.465 1145.59 558.682 1147.42 559.945 1147.15 556.388 1148.98 561.208 1151.77 563.136 1152.01 560.011 1155 562.404C1154.1 560.211 1152.67 557.983 1150.71 555.69 1146.89 551.169 1142.36 548.742 1137.21 548.377 1136.68 548.377 1136.28 548.344 1136.01 548.31 1131.85 548.31 1127.86 548.709 1124.01 549.474L1129.23 546.681 1132.45 544.022 1139.34 542.958 1141.83 544.155 1145.62 545.418 1148.35 547.213 1150.61 547.911 1151.24 547.346 1153.54 548.177C1150.58 545.385 1148.85 543.856 1148.28 543.557L1151.91 544.554 1149.31 541.695 1143.23 541.629 1148.08 539.435 1144.92 538.537 1138.9 540.964 1142.89 537.839 1141.2 537.706 1136.44 541.064 1139.74 537.208 1134.81 536.842 1129.59 541.463 1129.43 538.271 1127 539.501 1127.26 539.202 1129.09 537.939 1132.95 536.31 1129.86 534.083 1137.21 534.648 1133.02 531.989 1140.37 531.291 1136.31 530.46 1141.36 530.759M1101.89 543.856 1102.82 544.62 1104.52 546.748C1103.59 545.717 1102.72 544.72 1101.89 543.856M1098.03 548.344C1097.7 548.244 1097.37 548.177 1097.03 548.111L1101.13 546.881 1098.03 548.344M1101.96 547.978 1100.66 549.008C1100.63 549.008 1100.59 549.042 1100.56 549.042 1100.26 548.942 1099.93 548.809 1099.63 548.742L1101.96 547.978M1104.38 540.133 1104.62 540.997C1104.22 540.465 1103.82 539.934 1103.35 539.435L1108.51 539.501 1104.38 540.133M1119.82 547.845 1120.25 546.914 1121.94 545.119 1119.95 548.044 1119.82 547.845M1123.34 543.557 1124.57 542.26 1122.68 546.681 1123.34 543.557M1124.74 544.022 1124.9 541.828 1126.87 539.701 1124.74 544.022M1119.55 562.704 1119.72 562.537 1119.62 562.903 1119.55 562.704M1101.16 560.044 1100.09 561.474 1100.79 559.778 1101.16 560.044Z" fill="#008272" fill-rule="evenodd"/><path d="M819.633 720 826.467 662.605C823.2 668.368 816.5 671.866 806.3 673.031L766 673.031C755.633 673.031 748.3 679.127 743.967 691.286L736 720 819.633 720M1029.2 559.474 1026.73 556.376 986.333 554.744 978.5 545.483C977.733 544.218 976.2 543.418 973.933 543.085L952.4 543.085C945.5 542.452 940.833 545.35 938.467 551.779 934.5 564.504 928.267 571.633 919.8 573.098L896.1 574.397C890.3 574.764 886.433 580.96 884.5 592.985 882.567 604.977 881.1 620.667 880.1 640.12L895.2 640.886C901.8 628.794 910.067 622.932 920 623.265L974.2 623.265C980.633 623.531 985.967 620.067 990.233 612.805 992.7 607.109 994.4 601.379 995.367 595.617 996.533 588.555 1003.43 583.025 1016.1 579.061 1023.67 576.663 1028.03 570.134 1029.2 559.474M929.133 603.478 929.133 586.756 931.167 586.756 931.167 603.478 929.133 603.478M943.367 603.478 943.367 586.756 945.4 586.756 945.4 603.478 943.367 603.478M932.933 584.524 927.867 584.524 930.4 580.793 932.933 584.524M957.3 586.756 959.333 586.756 959.333 603.478 957.3 603.478 957.3 586.756M958.567 580.826 961.1 584.557 956.033 584.557 958.567 580.826M944.6 580.826 947.133 584.557 942.067 584.557 944.6 580.826M944.6 605.943 947.133 609.674 942.067 609.674 944.6 605.943M961.067 609.641 956 609.641 958.533 605.91 961.067 609.641M932.9 609.641 927.833 609.641 930.367 605.91 932.9 609.641M917.2 586.756 917.2 603.478 915.167 603.478 915.167 586.756 917.2 586.756M913.933 584.524 916.467 580.793 919 584.524 913.933 584.524M913.933 609.641 916.467 605.91 919 609.641 913.933 609.641M1239.13 641.919 1231.73 588.854C1230.6 583.858 1227.87 581.426 1223.47 581.559L1191.5 581.559C1188.27 581.693 1185.63 583.691 1183.57 587.489L1169.17 626.129 1168.77 621.966 1127.03 621.966 1138.33 720 1250 720 1239.13 641.919M1197.57 650.913 1197.57 641.919 1206.6 641.919 1206.6 650.913 1197.57 650.913M995.2 664.204 986.167 664.204 986.167 673.198 995.2 673.198 995.2 664.204M938.1 660.073 929.067 660.073 929.067 669.067 938.1 669.067 938.1 660.073M1044.07 597.748 1039.93 603.744 1048.13 603.744 1044.07 597.748M1026.37 603.744 1034.57 603.744 1030.5 597.782 1026.37 603.744M1033.1 595.317 1041.3 595.317 1037.23 589.354 1033.1 595.317M1051.57 565.97 1060.6 565.97 1060.6 556.976 1051.57 556.976 1051.57 565.97Z" fill="#FA8A00" fill-rule="evenodd"/><path d="M916.788 606.148 914.261 609.893 919.316 609.893 916.788 606.148M916.788 580.935 914.261 584.681 919.316 584.681 916.788 580.935M917.553 603.674 917.553 586.888 915.524 586.888 915.524 603.674 917.553 603.674M928.162 609.893 933.217 609.893 930.69 606.148 928.162 609.893M956.264 609.893 961.319 609.893 958.792 606.148 956.264 609.893M947.418 609.893 944.89 606.148 942.363 609.893 947.418 609.893M947.418 584.647 944.89 580.902 942.363 584.647 947.418 584.647M961.319 584.647 958.792 580.902 956.264 584.647 961.319 584.647M959.557 586.921 957.528 586.921 957.528 603.707 959.557 603.707 959.557 586.921M928.195 584.647 933.25 584.647 930.723 580.902 928.195 584.647M943.626 586.921 943.626 603.707 945.655 603.707 945.655 586.921 943.626 586.921M929.459 586.921 929.459 603.707 931.488 603.707 931.488 586.921 929.459 586.921M881.536 686 889.717 686 885.66 680.015 881.536 686M868 686 876.181 686 872.124 680.015 868 686M878.809 671.521 874.718 677.507 882.899 677.507 878.809 671.521M1096.88 667.676 1092.78 673.661 1100.97 673.661 1096.88 667.676M1114.5 673.661 1110.44 667.676 1106.35 673.661 1114.5 673.661M1103.59 659.216 1099.5 665.201 1107.68 665.201 1103.59 659.216M1135.82 574.281 1144 574.281 1139.94 568.296 1135.82 574.281M1135.82 553.315 1144 553.315 1139.94 547.329 1135.82 553.315M1139.91 557.829 1135.82 563.815 1144 563.815 1139.91 557.829M1080.08 537.432C1069.07 536.696 1057 536.896 1043.86 538.067 1036.45 538.602 1031.66 544.922 1029.5 557.027 1029.46 557.863 1029.4 558.699 1029.3 559.534 1028.13 570.235 1023.78 576.789 1016.19 579.163 1003.56 583.142 996.672 588.693 995.508 595.782 994.576 601.567 992.847 607.319 990.386 613.037 986.129 620.293 980.808 623.804 974.389 623.536L920.313 623.536C910.403 623.202 902.155 629.087 895.57 641.226L938.505 643.332C939.104 643.332 939.702 643.366 940.301 643.399 946.387 643.934 950.411 647.813 952.44 655.036 952.539 655.437 952.639 655.872 952.739 656.306L959.025 685.632C963.547 662.526 972.859 649.418 986.861 646.275L1070.7 646.275 1086.27 614.742C1088.79 610.93 1092.52 608.756 1097.37 608.255L1087.56 544.855C1087.53 544.587 1087.46 544.32 1087.4 544.052 1086.47 539.939 1084.04 537.732 1080.08 537.432M1060.66 566.022 1051.61 566.022 1051.61 556.993 1060.62 556.993 1060.66 566.022M1041.34 595.481 1033.15 595.481 1037.24 589.496 1041.34 595.481M1034.65 603.941 1026.47 603.941 1030.56 597.956 1034.65 603.941M1040.04 603.941 1044.13 597.956 1048.19 603.941 1040.04 603.941Z" fill="#F6453B" fill-rule="evenodd"/><path d="M1197.52 642.142 1197.52 651.115 1206.55 651.115 1206.55 642.142 1197.52 642.142M1264.68 642.94C1264.35 642.94 1263.99 642.94 1263.65 642.94 1255.93 642.907 1247.7 642.641 1239.05 642.142L1249.87 720 1281 720 1281 653.474C1278.74 646.961 1275.21 643.438 1270.38 642.874 1268.88 642.907 1267.35 642.907 1265.82 642.94L1265.78 642.94C1265.38 642.94 1265.05 642.94 1264.68 642.94M1136.69 530.224C1134.06 531.188 1132.56 533.414 1132.23 536.87L1120.31 608.215 1098.7 608.215C1098.3 608.248 1097.9 608.281 1097.5 608.314 1092.64 608.813 1088.94 610.973 1086.38 614.761L1070.79 646.097 986.852 646.097C972.834 649.22 963.511 662.247 958.983 685.175L952.689 656.033C952.59 655.601 952.49 655.169 952.39 654.77 950.359 647.592 946.33 643.771 940.236 643.206 939.637 643.173 939.038 643.139 938.438 643.139L895.452 641.046 880.368 640.282 872.976 639.949C870.479 639.252 868.115 636.36 865.817 631.276 863.519 626.159 860.456 623.368 856.694 622.936L840.012 622.47C834.684 622.504 831.654 624.431 830.888 628.252L826.826 662.745 820 720 1138.35 720 1127.07 622.205 1165.82 622.205C1166.82 622.005 1167.76 621.673 1168.66 621.208L1160.16 536.405C1160.13 536.172 1160.1 535.973 1160.06 535.774 1159.37 532.019 1156.73 530.125 1152.17 530.025 1147.54 529.958 1142.42 530.025 1136.69 530.224M1135.99 564.219 1140.09 558.27 1144.15 564.219 1135.99 564.219M1144.15 553.751 1135.96 553.751 1140.05 547.803 1144.15 553.751M1144.15 574.619 1135.96 574.619 1140.05 568.671 1144.15 574.619M1099.6 664.938 1103.69 658.99 1107.75 664.938 1099.6 664.938M1110.55 667.397 1114.61 673.345 1106.42 673.345 1110.55 667.397M1092.87 673.345 1096.97 667.397 1101.03 673.345 1092.87 673.345M929.281 660.253 938.305 660.253 938.305 669.225 929.281 669.225 929.281 660.253M986.353 664.373 995.376 664.373 995.376 673.345 986.353 673.345 986.353 664.373M874.541 677.2 878.636 671.252 882.699 677.2 874.541 677.2M876.006 685.607 867.815 685.607 871.91 679.659 876.006 685.607M889.558 685.607 881.367 685.607 885.462 679.659 889.558 685.607Z" fill="#FFCC00" fill-rule="evenodd"/></g></svg>